<?xml version="1.0" encoding="UTF-8" standalone="no"?>
<svg
   version="1.1"
   viewBox="-5.0 -10.0 110.0 135.0"
   id="svg12"
   sodipodi:docname="noun-hand-7896364.svg"
   inkscape:version="1.3.2 (091e20e, 2023-11-25)"
   xmlns:inkscape="http://www.inkscape.org/namespaces/inkscape"
   xmlns:sodipodi="http://sodipodi.sourceforge.net/DTD/sodipodi-0.dtd"
   xmlns="http://www.w3.org/2000/svg"
   xmlns:svg="http://www.w3.org/2000/svg">
  <defs
     id="defs12" />
  <sodipodi:namedview
     id="namedview12"
     pagecolor="#ffffff"
     bordercolor="#000000"
     borderopacity="0.25"
     inkscape:showpageshadow="2"
     inkscape:pageopacity="0.0"
     inkscape:pagecheckerboard="0"
     inkscape:deskcolor="#d1d1d1"
     inkscape:zoom="1.7481481"
     inkscape:cx="55.201273"
     inkscape:cy="67.500002"
     inkscape:window-width="1312"
     inkscape:window-height="431"
     inkscape:window-x="0"
     inkscape:window-y="37"
     inkscape:window-maximized="0"
     inkscape:current-layer="svg12" />
  <path
     d="m 29.912432,5.8621049 c -0.655364,0.7009701 -0.655364,1.7868433 0,2.4878716 0.327683,0.350485 0.75207,0.5228594 1.144206,0.5228594 0.392138,0 0.84876,-0.1723744 1.144207,-0.5228594 9.529713,-10.1928622 25.049238,-10.1928622 34.610992,0 0.655364,0.7009701 1.670591,0.7009701 2.326011,0 0.655364,-0.700969 0.655364,-1.7868433 0,-2.4878716 -10.835051,-11.5603536 -28.417099,-11.5603536 -39.224783,0 z"
     id="path1"
     style="stroke-width:1.42224" />
  <path
     d="m 35.444856,13.560771 c 0.424372,0 0.848759,-0.172375 1.144206,-0.52286 3.437996,-3.6772384 8.020157,-5.7111917 12.903211,-5.7111917 4.877691,0 9.465216,2.0339533 12.903211,5.7111917 0.655364,0.70097 1.670591,0.70097 2.326011,0 0.655364,-0.70097 0.655364,-1.786843 0,-2.487873 -4.061099,-4.3437 -9.465215,-6.7569969 -15.223446,-6.7569969 -5.764007,0 -11.16276,2.3787316 -15.223446,6.7569969 -0.655365,0.70097 -0.655365,1.786845 0,2.487873 0.35454,0.350485 0.746691,0.52286 1.171064,0.52286 z"
     id="path2"
     style="stroke-width:1.42224" />
  <path
     d="m 41.015784,17.732229 c 4.684201,-5.010163 12.312289,-5.010163 17.029082,0 0.327682,0.350485 0.752068,0.522858 1.144205,0.522858 0.392138,0 0.848759,-0.172373 1.144207,-0.522858 0.655365,-0.70097 0.655365,-1.786843 0,-2.487872 -5.957359,-6.3719181 -15.685512,-6.3719181 -21.642872,0 -0.655364,0.70097 -0.655364,1.786843 0,2.487872 0.655365,0.700969 1.670591,0.700969 2.326011,0 z"
     id="path3"
     style="stroke-width:1.42224" />
  <path
     d="m 45.398541,22.427326 c 2.261514,-2.418887 5.957359,-2.418887 8.219011,0 0.327682,0.350485 0.752068,0.52286 1.144206,0.52286 0.392138,0 0.848759,-0.172375 1.144207,-0.52286 0.655364,-0.70097 0.655364,-1.786843 0,-2.487872 -3.534673,-3.780641 -9.298679,-3.780641 -12.865669,0 -0.655364,0.70097 -0.655364,1.786844 0,2.487872 0.655364,0.695233 1.702908,0.695233 2.358191,0 z"
     id="path4"
     style="stroke-width:1.42224" />
  <path
     d="M 22.482236,49.494738 H 39.08088 c 0.918591,0 1.638411,-0.769926 1.638411,-1.752425 0,-0.982498 -0.719834,-1.752424 -1.638411,-1.752424 H 22.121934 c -0.230993,0 -0.456607,0.03448 -0.655364,0.137897 l -6.972669,3.326723 c -1.015282,-1.258306 -2.519363,-2.068373 -4.190092,-2.068373 -3.078107,0 -5.5974698,2.69468 -5.5974698,5.986985 0,3.292305 2.5193628,5.986984 5.5974698,5.986984 3.078107,0 5.597469,-2.694679 5.597469,-5.986984 0,-0.247067 -0.03224,-0.453904 -0.06446,-0.70097 z m -12.215613,6.337499 c -1.2785077,0 -2.3260104,-1.12041 -2.3260104,-2.487872 0,-1.367476 1.0475167,-2.487873 2.3260104,-2.487873 0.918592,0 1.735088,0.597552 2.094977,1.436418 v 0.03448 c 0,0.03448 0.03223,0.03448 0.03223,0.03448 0.09669,0.281544 0.16116,0.59755 0.16116,0.948035 0.0376,1.401939 -1.009918,2.522291 -2.288467,2.522291 z"
     id="path5"
     style="stroke-width:1.42224" />
  <path
     d="m 10.266348,26.907672 c 1.670592,0 3.174783,-0.804402 4.190092,-2.068372 l 6.972668,3.326724 c 0.198758,0.10342 0.424373,0.137895 0.655366,0.137895 h 20.955272 c 0.918592,0 1.638411,-0.769925 1.638411,-1.752424 0,-0.982499 -0.719834,-1.752424 -1.638411,-1.752424 H 22.4434 L 15.766125,21.61017 c 0.03223,-0.247066 0.06446,-0.453903 0.06446,-0.70097 0,-3.292305 -2.519364,-5.986983 -5.597471,-5.986983 -3.0781054,0.0057 -5.5652898,2.706152 -5.5652898,5.992721 0,3.292303 2.519364,5.99272 5.5974708,5.99272 z m 0,-8.440437 c 1.278508,0 2.326011,1.12041 2.326011,2.487872 0,0.316007 -0.06446,0.632029 -0.161159,0.907822 0,0.03448 -0.03223,0.03448 -0.03223,0.06894 v 0.03448 c -0.359917,0.838866 -1.144206,1.436418 -2.094978,1.436418 -1.2785067,0 -2.326009,-1.12041 -2.326009,-2.487873 -0.037599,-1.361725 1.0099183,-2.447716 2.288467,-2.447716 z"
     id="path6"
     style="stroke-width:1.42224" />
  <path
     d="m 39.082255,38.88223 c 0.918592,0 1.638412,-0.769926 1.638412,-1.752424 0,-0.982499 -0.719834,-1.752425 -1.638412,-1.752425 l -33.2674237,0.0057 C 5.0949972,32.929674 2.9999377,31.142829 0.51275436,31.142829 c -3.07810656,0 -5.59747016,2.69468 -5.59747016,5.986985 0,3.292304 2.5193636,5.986984 5.59747016,5.986984 2.51936284,0 4.61447774,-1.786843 5.30207694,-4.240296 z M 0.51206616,39.617677 c -1.27850766,0 -2.32601006,-1.120409 -2.32601006,-2.487871 0,-1.367463 1.04751608,-2.487873 2.32601006,-2.487873 1.27850874,0 2.32601084,1.12041 2.32601084,2.487873 -0.00532,1.367476 -1.0528793,2.487871 -2.32601084,2.487871 z"
     id="path7"
     style="stroke-width:1.42224" />
  <path
     d="m 94.186453,53.383785 c 0,-3.292305 -2.519363,-5.986985 -5.59747,-5.986985 -1.67059,0 -3.174782,0.804404 -4.190092,2.068373 L 77.426223,46.13845 C 77.227466,46.035029 77.00185,46.000553 76.770859,46.000553 H 59.811913 c -0.918592,0 -1.638411,0.769926 -1.638411,1.752425 0,0.982498 0.719834,1.752424 1.638411,1.752424 h 16.598644 l 6.677276,3.188901 c -0.03223,0.247066 -0.06446,0.453904 -0.06446,0.700969 0,3.292305 2.519362,5.986985 5.597469,5.986985 3.078107,-0.01149 5.565291,-2.706153 5.565291,-5.998457 z m -7.923479,0 c 0,-0.316007 0.06446,-0.632029 0.161159,-0.948036 0,-0.03448 0.03223,-0.03448 0.03223,-0.03448 v -0.06895 c 0.359917,-0.838867 1.144207,-1.436418 2.094978,-1.436418 1.278508,0 2.32601,1.12041 2.32601,2.487872 0,1.367477 -1.047516,2.487873 -2.32601,2.487873 -1.240896,-0.04022 -2.288468,-1.160625 -2.288468,-2.487873 z"
     id="path8"
     style="stroke-width:1.42224" />
  <path
     d="m 55.777163,24.805764 c -0.918591,0 -1.638411,0.769924 -1.638411,1.752424 0,0.982499 0.719833,1.752425 1.638411,1.752425 h 20.955273 c 0.230992,0 0.456607,-0.03448 0.655364,-0.137897 l 6.972668,-3.326724 c 1.015282,1.258307 2.519364,2.068374 4.190092,2.068374 3.078107,0 5.59747,-2.69468 5.59747,-5.986985 0,-3.292305 -2.519363,-5.986984 -5.59747,-5.986984 -3.078106,0 -5.597469,2.694679 -5.597469,5.986984 0,0.247066 0.03224,0.453904 0.06446,0.700969 l -6.677275,3.188901 z m 32.810857,-6.3375 c 1.278509,0 2.326011,1.120411 2.326011,2.487873 0,1.367476 -1.047516,2.487872 -2.326011,2.487872 -0.91859,0 -1.735087,-0.597551 -2.094977,-1.436418 v -0.06894 c 0,-0.03448 -0.03223,-0.03448 -0.03223,-0.06894 -0.09669,-0.281544 -0.161159,-0.597551 -0.161159,-0.907822 -0.0376,-1.407691 1.009918,-2.493609 2.288468,-2.493609 z"
     id="path9"
     style="stroke-width:1.42224" />
  <path
     d="m 98.343678,43.12282 c 3.078102,0 5.597472,-2.69468 5.597472,-5.986983 0,-3.292305 -2.51937,-5.986985 -5.597472,-5.986985 -2.519364,0 -4.614477,1.786843 -5.302077,4.240296 l -33.267424,-0.0057 c -0.918591,0 -1.638411,0.769925 -1.638411,1.752424 0,0.9825 0.719834,1.752424 1.638411,1.752424 h 33.267424 c 0.719833,2.447718 2.814893,4.234561 5.302077,4.234561 z m 0,-8.440437 c 1.27851,0 2.326012,1.12041 2.326012,2.487872 0,1.367476 -1.047522,2.487872 -2.326012,2.487872 -1.278508,0 -2.326011,-1.120411 -2.326011,-2.487872 0.0053,-1.367477 1.05288,-2.487872 2.326011,-2.487872 z"
     id="path10"
     style="stroke-width:1.42224" />
  <path
     d="M 82.792935,100.97607 C 85.543332,94.32262 88.949148,86.020006 87.047524,72.396576 86.231,66.512995 82.921929,65.392613 80.988125,65.214489 79.548429,65.076592 78.269908,65.386862 77.222419,65.81204 l 0.0053,-2.585539 c 0,-4.062172 -3.110285,-7.388895 -6.908171,-7.388895 -2.127294,0 -3.996602,1.051455 -5.26976,2.66026 -1.278508,-1.608865 -3.142603,-2.66026 -5.26976,-2.66026 -1.342964,0 -2.551681,0.419441 -3.636712,1.12041 V 36.956784 c 0,-4.062171 -3.110286,-7.388894 -6.908172,-7.388894 -3.797885,0 -6.908171,3.326723 -6.908171,7.388894 v 40.765858 c -0.128907,-0.316007 -0.263209,-0.632029 -0.392134,-0.948036 -0.950826,-2.275328 -2.127294,-5.079148 -4.549981,-7.251072 -2.062797,-1.821408 -4.652021,-2.556856 -7.499094,-2.137357 -1.471875,0.212588 -2.782577,1.12041 -3.56699,2.453453 -0.784289,1.332999 -0.950826,2.941791 -0.52644,4.447105 0.816525,2.729245 2.261514,7.216505 4.485485,13.272475 3.045789,8.302467 6.156213,11.767161 8.675577,14.57098 2.589223,2.90738 4.190092,4.7632 4.485484,11.03172 v 7.35447 c 0,0.98252 0.719833,1.75243 1.638411,1.75243 h 32.940126 c 0.918592,0 1.638412,-0.76992 1.638412,-1.75243 l -0.0053,-7.56128 v -0.0345 -0.0345 c -0.06446,-4.06217 1.407378,-7.70498 3.142603,-11.91086 z m -6.349566,17.79489 H 46.780341 l -0.0054,-4.06217 h 29.663082 z m 0.09669,-7.56702 H 46.677631 c -0.590909,-6.26851 -2.685899,-8.61283 -5.26976,-11.520054 -2.29383,-2.591276 -5.173084,-5.780177 -7.987977,-13.410445 -2.191791,-5.952566 -3.599169,-10.36525 -4.388808,-13.065667 -0.161159,-0.522859 -0.0967,-1.051455 0.16116,-1.505314 0.263226,-0.453903 0.719833,-0.769926 1.246272,-0.838866 1.933805,-0.281545 3.59917,0.172373 4.942188,1.367476 1.831765,1.643284 2.750397,3.849627 3.66903,5.986984 0.752069,1.786843 1.439695,3.464694 2.685899,4.62523 0.752069,0.70097 1.831765,0.873344 2.159474,0.907821 0.456608,0.06894 0.950827,-0.10342 1.278509,-0.419439 0.359917,-0.350485 0.558675,-0.804404 0.558675,-1.332999 l -0.0053,-45.040279 c 0,-2.137358 1.638412,-3.889783 3.636712,-3.889783 1.9983,0 3.636712,1.752425 3.636712,3.889783 l -0.0053,26.268715 v 9.382693 c 0,0.982514 0.719835,1.752425 1.638412,1.752425 0.918592,0 1.638412,-0.769926 1.638412,-1.752425 v -9.382693 c 0,-2.137358 1.63841,-3.889782 3.636712,-3.889782 1.9983,0 3.636712,1.752424 3.636712,3.889782 v 11.244258 c 0,0.982514 0.719834,1.752424 1.638411,1.752424 0.918578,0 1.638411,-0.769925 1.638411,-1.752424 l -0.0054,-11.244258 c 0,-2.137358 1.638411,-3.889782 3.636712,-3.889782 1.998301,0 3.636712,1.752424 3.636712,3.889782 v 13.134652 c 0,0.982514 0.719834,1.752425 1.638411,1.752425 0.918578,0 1.638412,-0.769926 1.638412,-1.752425 v -6.584609 c 0.687599,-0.453904 1.933803,-1.154887 3.502493,-1.051454 0.687599,0.06894 2.487183,0.212588 3.045789,4.200141 1.767405,12.640578 -1.310729,20.070364 -4.028919,26.648209 -1.676091,3.855368 -3.083469,7.532608 -3.346682,11.629198 z"
     id="path11"
     style="stroke-width:1.42224" />
</svg>
