<?xml version="1.0" encoding="UTF-8" standalone="no"?>
<svg
   version="1.1"
   viewBox="-5.0 -10.0 110.0 135.0"
   id="svg10"
   sodipodi:docname="noun-book-and-lightbulb-7963226.svg"
   inkscape:version="1.3.2 (091e20e, 2023-11-25)"
   xmlns:inkscape="http://www.inkscape.org/namespaces/inkscape"
   xmlns:sodipodi="http://sodipodi.sourceforge.net/DTD/sodipodi-0.dtd"
   xmlns="http://www.w3.org/2000/svg"
   xmlns:svg="http://www.w3.org/2000/svg">
  <defs
     id="defs10" />
  <sodipodi:namedview
     id="namedview10"
     pagecolor="#ffffff"
     bordercolor="#000000"
     borderopacity="0.25"
     inkscape:showpageshadow="2"
     inkscape:pageopacity="0.0"
     inkscape:pagecheckerboard="0"
     inkscape:deskcolor="#d1d1d1"
     inkscape:zoom="1.7481481"
     inkscape:cx="55.201271"
     inkscape:cy="67.5"
     inkscape:window-width="1312"
     inkscape:window-height="431"
     inkscape:window-x="0"
     inkscape:window-y="37"
     inkscape:window-maximized="0"
     inkscape:current-layer="svg10" />
  <path
     d="m 36.65273,50.011683 c 1.752862,1.287145 3.166668,3.849694 3.618958,6.441568 -0.967565,0.661127 -1.589575,1.720029 -1.589575,2.907753 0,0.795685 0.289018,1.526967 0.753949,2.141348 -0.464931,0.596768 -0.753949,1.333936 -0.753949,2.141348 0,1.544491 1.042967,2.861023 2.494346,3.387485 1.482776,3.293875 4.906986,5.46443 8.79616,5.46443 3.907992,0 7.319624,-2.170555 8.796159,-5.46443 1.463925,-0.526552 2.494347,-1.842994 2.494347,-3.387485 0,-0.795685 -0.289018,-1.526967 -0.75395,-2.141348 0.464932,-0.596768 0.75395,-1.33395 0.75395,-2.141348 0,-1.199377 -0.628284,-2.246641 -1.589575,-2.907753 0.452369,-2.591874 1.866095,-5.154393 3.637776,-6.441568 5.598126,-4.118842 8.814978,-9.928505 8.814978,-15.907715 0,-11.385377 -9.939589,-20.65262 -22.165716,-20.65262 -12.22661,0 -22.165717,9.273234 -22.165717,20.65262 0.04398,5.996883 3.260762,11.789023 8.858888,15.907715 z m 13.351221,19.48886 c -1.979168,0 -3.763395,-0.854188 -4.950896,-2.217434 h 9.889246 c -1.174907,1.363201 -2.959182,2.217434 -4.93835,2.217434 z m 7.401332,-5.212955 H 42.609052 c -0.383255,0 -0.691124,-0.286687 -0.691124,-0.643573 0,-0.356887 0.307869,-0.643573 0.691124,-0.643573 h 14.796231 c 0.370694,0 0.691125,0.286686 0.691125,0.643573 0,0.356886 -0.326704,0.643573 -0.691125,0.643573 z m 0,-4.282697 H 42.609052 c -0.383255,0 -0.691124,-0.286686 -0.691124,-0.643573 0,-0.356886 0.307869,-0.643572 0.691124,-0.643572 h 4.297553 0.03141 0.03142 6.094486 0.03141 0.03141 4.278735 c 0.370694,0 0.691124,0.286686 0.691124,0.643572 0,0.356887 -0.326703,0.643573 -0.691124,0.643573 z M 45.304452,40.850031 h -0.609448 c -0.339282,0 -0.609449,-0.257435 -0.609449,-0.585055 0,-0.32762 0.276456,-0.585055 0.609449,-0.585055 0.339281,0 0.628283,0.257435 0.628283,0.585055 v 0.585055 z m 3.216852,14.883996 V 43.839711 h 2.940363 v 11.894316 z m 1.482776,-39.28626 c 10.435949,0 18.948864,7.921806 18.948864,17.6571 0,5.060783 -2.764562,10.004591 -7.58984,13.567613 -2.619964,1.930764 -4.197026,5.224639 -4.762388,8.073828 H 54.715802 V 43.851993 h 0.628283 c 2.123605,0 3.826285,-1.603053 3.826285,-3.580547 0,-1.977493 -1.721499,-3.580546 -3.826285,-3.580546 -2.104786,0 -3.845102,1.603053 -3.845102,3.580546 v 0.585056 h -2.940364 v -0.585056 c 0,-1.977493 -1.721498,-3.580546 -3.845102,-3.580546 -2.123605,0 -3.826285,1.603053 -3.826285,3.580546 0,1.977494 1.721499,3.580547 3.826285,3.580547 H 45.3418 v 11.894315 l -1.935097,0.0059 c -0.565458,-2.843398 -2.136151,-6.143264 -4.762388,-8.073877 -4.825278,-3.55134 -7.608659,-8.495148 -7.608659,-13.555932 0.01885,-9.747126 8.513398,-17.675072 18.968166,-17.675072 z m 4.699659,24.403013 v -0.585055 c 0,-0.315938 0.276456,-0.585055 0.628283,-0.585055 0.339282,0 0.609449,0.257435 0.609449,0.585055 0,0.32762 -0.276456,0.585055 -0.609449,0.585055 z"
     id="path1"
     style="stroke-width:1.55211" />
  <path
     d="m 50.004273,11.327523 c 0.885888,0 1.608425,-0.672824 1.608425,-1.4977601 v -4.686343 c 0,-0.8249366 -0.722537,-1.4977606 -1.608425,-1.4977606 -0.885889,0 -1.608426,0.672824 -1.608426,1.4977606 v 4.686343 c 0,0.8249361 0.709975,1.4977601 1.608426,1.4977601 z"
     id="path2"
     style="stroke-width:1.55211" />
  <path
     d="m 33.020904,15.446365 c 0.320431,0.403691 0.804213,0.614321 1.300557,0.614321 0.320431,0 0.659712,-0.08776 0.948714,-0.286686 0.722537,-0.479748 0.885889,-1.421704 0.351843,-2.094468 L 32.662836,9.8884002 C 32.147641,9.2155762 31.136086,9.0634637 30.413614,9.5607651 29.691077,10.040513 29.527725,10.982469 30.061771,11.655233 Z"
     id="path3"
     style="stroke-width:1.55211" />
  <path
     d="m 19.349285,26.977623 4.775094,1.450956 c 0.163352,0.0468 0.339281,0.07606 0.496344,0.07606 0.678563,0 1.300557,-0.403691 1.52675,-1.035567 0.276456,-0.795685 -0.194764,-1.632259 -1.03039,-1.889724 l -4.775094,-1.450956 c -0.854476,-0.25742 -1.752863,0.181364 -2.029351,0.959511 -0.270167,0.783987 0.201053,1.632259 1.036679,1.889724 z"
     id="path4"
     style="stroke-width:1.55211" />
  <path
     d="m 24.124701,40.936752 -4.775095,1.450955 c -0.835625,0.257435 -1.300557,1.094069 -1.03039,1.889725 0.226177,0.63186 0.854477,1.035566 1.52675,1.035566 0.163352,0 0.339282,-0.02925 0.496345,-0.07606 l 4.775094,-1.450956 c 0.835626,-0.25742 1.300557,-1.094069 1.03039,-1.889724 -0.270167,-0.778132 -1.168618,-1.216931 -2.023078,-0.959495 z"
     id="path5"
     style="stroke-width:1.55211" />
  <path
     d="m 74.872144,43.780999 4.775095,1.450955 c 0.163352,0.0468 0.339281,0.07606 0.496344,0.07606 0.678563,0 1.300557,-0.403692 1.52675,-1.035567 0.276456,-0.795685 -0.194764,-1.632259 -1.03039,-1.889724 l -4.775094,-1.450956 c -0.854477,-0.25742 -1.752863,0.181364 -2.029351,0.95951 -0.270167,0.795686 0.201053,1.638251 1.036679,1.889725 z"
     id="path6"
     style="stroke-width:1.55211" />
  <path
     d="m 75.369148,28.493357 c 0.163352,0 0.339281,-0.02925 0.496344,-0.07606 l 4.775095,-1.450955 c 0.835625,-0.257436 1.300557,-1.09407 1.030389,-1.889725 -0.276456,-0.778131 -1.174906,-1.211074 -2.02935,-0.959495 l -4.775095,1.450955 c -0.835626,0.257435 -1.300557,1.094069 -1.03039,1.889725 0.232466,0.643572 0.860765,1.035566 1.533023,1.035566 z"
     id="path7"
     style="stroke-width:1.55211" />
  <path
     d="m 65.667123,16.072429 c 0.496344,0 0.980143,-0.210615 1.300557,-0.614322 l 2.959182,-3.791131 C 70.442057,10.994152 70.278705,10.063923 69.575019,9.5725075 68.852482,9.0810623 67.853521,9.2273187 67.325796,9.9001427 l -2.959181,3.7911313 c -0.515195,0.672824 -0.351844,1.603053 0.351843,2.094468 0.289018,0.181364 0.628283,0.286687 0.948714,0.286687 z"
     id="path8"
     style="stroke-width:1.55211" />
  <path
     d="m 99.024586,54.926063 h -5.201058 v -2.469926 c 0,-0.406341 -0.303024,-0.776825 -0.774957,-0.940161 -7.769412,-2.65319 -15.106695,-3.856182 -22.354196,-3.67302 -0.700435,0.01992 -1.25681,0.489997 -1.231973,1.051648 0.02484,0.54975 0.586184,0.987961 1.271714,0.987961 h 0.03974 c 6.676501,-0.163336 13.378436,0.896339 20.511482,3.254686 V 94.471984 C 76.958205,89.946488 63.645898,90.30506 50.699846,95.547599 V 77.211054 c 0,-0.561702 -0.57128,-1.01983 -1.271715,-1.01983 -0.700435,0 -1.271714,0.458128 -1.271714,1.01983 V 95.547599 C 35.210364,90.30506 21.898058,89.950465 7.5760102,94.468006 V 53.141432 C 14.709565,50.795007 21.426252,49.723369 28.087492,49.886746 h 0.03974 c 0.68553,0 1.246878,-0.438211 1.271714,-0.98796 0.02484,-0.561702 -0.536511,-1.031762 -1.231973,-1.051649 -7.262634,-0.175278 -14.585293,1.01983 -22.3541958,3.67302 -0.4719205,0.163336 -0.7749573,0.54975 -0.7749573,0.960078 v 2.445961 h -5.20614346 c -0.70043486,0 -1.27171444,0.458128 -1.27171444,1.01983 v 46.943794 c 0,0.56171 0.57127958,1.01983 1.27171444,1.01983 H 39.165803 c 1.957295,0 4.003865,0.58959 6.090367,1.76482 1.142559,0.63341 2.632831,0.98796 4.182796,0.98796 1.549966,0 3.025282,-0.34658 4.182796,-0.98796 2.061576,-1.16322 4.108273,-1.75288 6.080321,-1.75288 l 39.323953,-0.004 c 0.70043,0 1.271714,-0.45813 1.271714,-1.01983 V 55.945815 c 0,-0.569667 -0.571284,-1.01983 -1.271714,-1.01983 z M 97.752872,101.85864 H 59.690459 c -2.493704,0 -5.037133,0.71309 -7.530965,2.11931 -0.725272,0.39837 -1.718849,0.62147 -2.732151,0.62147 -1.018364,0 -2.006893,-0.22309 -2.722232,-0.62147 -2.503752,-1.40624 -5.037134,-2.13124 -7.540885,-2.13124 l -38.0624121,0.004 V 56.965934 h 3.9293432 v 39.008501 0.01195 c 0,0.183253 0.074515,0.334626 0.1788285,0.478045 0.3179286,0.450163 0.9935268,0.653323 1.589643,0.450163 14.9273834,-5.09915 28.6784314,-4.700805 42.0161724,1.215026 0.0149,0.01195 0.03974,0.01195 0.04968,0.01992 0.04968,0.01992 0.09935,0.03187 0.153992,0.05179 0.02484,0.01195 0.04968,0.01992 0.08942,0.03187 0.07451,0.01992 0.163937,0.01992 0.253351,0.03187 0.02484,0 0.04968,0.01195 0.07451,0.01195 0.02484,0 0.04968,-0.01195 0.06458,-0.01195 0.08942,0 0.163937,-0.01195 0.253351,-0.03187 0.03974,-0.01195 0.06458,-0.01992 0.08942,-0.03187 0.04968,-0.01195 0.08942,-0.03187 0.1391,-0.03984 0.02484,-0.01195 0.03974,-0.01195 0.06458,-0.01992 13.337741,-5.91583 27.073528,-6.314176 42.016172,-1.215025 0.650762,0.223087 1.385915,-0.01992 1.664166,-0.541785 0.07451,-0.143409 0.09935,-0.294792 0.08942,-0.450163 0,-0.01195 0.0149,-0.03187 0.0149,-0.03984 l 0.005,-38.928954 h 3.914464 z"
     id="path9"
     style="stroke-width:1.13883" />
</svg>
