<?xml version="1.0" encoding="UTF-8" standalone="no"?>
<svg
   version="1.1"
   viewBox="-5.0 -10.0 110.0 135.0"
   id="svg2"
   sodipodi:docname="noun-networking-7857539.svg"
   inkscape:version="1.3.2 (091e20e, 2023-11-25)"
   xmlns:inkscape="http://www.inkscape.org/namespaces/inkscape"
   xmlns:sodipodi="http://sodipodi.sourceforge.net/DTD/sodipodi-0.dtd"
   xmlns="http://www.w3.org/2000/svg"
   xmlns:svg="http://www.w3.org/2000/svg">
  <defs
     id="defs2" />
  <sodipodi:namedview
     id="namedview2"
     pagecolor="#ffffff"
     bordercolor="#000000"
     borderopacity="0.25"
     inkscape:showpageshadow="2"
     inkscape:pageopacity="0.0"
     inkscape:pagecheckerboard="0"
     inkscape:deskcolor="#d1d1d1"
     inkscape:zoom="1.7481481"
     inkscape:cx="55.201271"
     inkscape:cy="67.5"
     inkscape:window-width="1312"
     inkscape:window-height="431"
     inkscape:window-x="0"
     inkscape:window-y="37"
     inkscape:window-maximized="0"
     inkscape:current-layer="svg2" />
  <path
     d="m 51.141253,16.390339 c 2.471089,0 4.487357,-2.073235 4.487357,-4.614142 0,-2.5409068 -2.016268,-4.6141417 -4.487357,-4.6141417 -2.47109,0 -4.487357,2.0732349 -4.487357,4.6141417 0,2.536093 2.016267,4.614142 4.487357,4.614142 z m 0,-6.9380609 c 1.247308,0 2.255382,1.0366049 2.255382,2.3191049 0,1.28255 -1.008122,2.319105 -2.255382,2.319105 -1.247261,0 -2.255383,-1.036605 -2.255383,-2.319105 0,-1.282549 1.008122,-2.3191049 2.255383,-2.3191049 z M 9.1521784,47.763367 c 2.4710896,0 4.4873576,-2.073235 4.4873576,-4.614142 0,-2.540907 -2.016268,-4.614141 -4.4873576,-4.614141 -2.4710894,0 -4.4873572,2.073234 -4.4873572,4.614141 0,2.540907 2.0162678,4.614142 4.4873572,4.614142 z m 0,-6.947688 c 1.2473086,0 2.2553826,1.036605 2.2553826,2.319105 0,1.28255 -1.008122,2.319105 -2.2553826,2.319105 -1.2473084,0 -2.2553822,-1.036605 -2.2553822,-2.319105 0.00938,-1.272798 1.0175088,-2.319105 2.2553822,-2.319105 z M 25.202376,89.271387 c -2.471089,0 -4.487357,2.073235 -4.487357,4.614142 0,2.540907 2.016268,4.614141 4.487357,4.614141 2.47109,0 4.487357,-2.073234 4.487357,-4.614141 0,-2.540907 -2.016267,-4.614142 -4.487357,-4.614142 z m 0,6.938061 c -1.247308,0 -2.255382,-1.036606 -2.255382,-2.319106 0,-1.282549 1.008122,-2.319105 2.255382,-2.319105 1.247261,0 2.255382,1.036605 2.255382,2.319105 0,1.28255 -1.017508,2.319106 -2.255382,2.319106 z m 47.400359,-2.825411 c 0,2.540907 2.016268,4.614142 4.487357,4.614142 2.47109,0 4.487358,-2.073235 4.487358,-4.614142 0,-2.540907 -2.016268,-4.614141 -4.487358,-4.614141 -2.471089,-0.0048 -4.487357,2.068421 -4.487357,4.614141 z m 6.747421,0 c 0,1.28255 -1.008122,2.319105 -2.255382,2.319105 -1.247308,0 -2.255382,-1.036605 -2.255382,-2.319105 0,-1.282549 1.008122,-2.319105 2.255382,-2.319105 1.247308,0 2.255382,1.046257 2.255382,2.319105 z M 93.130447,33.409946 c -3.85428,0 -7.310036,1.764663 -9.663969,4.541813 L 62.122632,22.017091 c 1.162862,-1.986464 1.847495,-4.295942 1.847495,-6.774147 0,-7.280329 -5.74871,-13.1957813 -12.833196,-13.1957813 -7.080284,0 -12.833195,5.9255735 -12.833195,13.1957813 0,2.483019 0.684585,4.787683 1.847495,6.774147 l -21.32584,15.934668 c -2.353813,-2.77715 -5.809569,-4.556254 -9.6639697,-4.556254 -7.0802846,0 -12.8331959,5.925574 -12.8331959,13.195781 0,7.270208 5.7627544,13.195781 12.8331959,13.195781 0.9940537,0 1.9552887,-0.125354 2.8789767,-0.347143 l 8.149457,25.770715 c -4.585787,2.010533 -7.816473,6.69219 -7.816473,12.130713 0,7.280328 5.762754,13.195778 12.833195,13.195778 6.695805,0 12.195798,-5.30843 12.773178,-12.048753 h 26.408222 c 0.792439,6.494453 6.194169,11.542573 12.726363,11.542573 7.070922,0 12.833196,-5.92557 12.833196,-13.19578 0,-5.395199 -3.169707,-10.023782 -7.680472,-12.072825 L 90.275838,59.43474 c 0.923724,0.221789 1.89431,0.347143 2.878977,0.347143 7.070925,0 12.833195,-5.911132 12.833195,-13.195781 -0.0234,-7.265887 -5.78616,-13.177266 -12.857203,-13.177266 z m -10.986181,6.402873 c -1.162862,1.986465 -1.847495,4.30557 -1.847495,6.788589 0,1.022139 0.12191,2.010532 0.337605,2.960318 l -8.571389,2.86392 C 68.968304,44.094197 61.320602,38.096788 52.25682,37.628992 v -9.271607 c 3.408822,-0.308572 6.42392,-1.986464 8.547982,-4.493551 z M 33.603552,87.409462 38.89744,79.916959 c 3.53078,2.37218 7.732088,3.765569 12.242612,3.765569 4.571744,0 8.824668,-1.417458 12.374653,-3.852339 l 5.101589,7.121229 c -2.522706,2.285409 -4.154374,5.554299 -4.332629,9.233097 H 37.959468 C 37.673443,92.70345 36.041631,89.59366 33.603432,87.409462 Z m 17.53626,-61.284905 c -2.170996,0 -4.187263,-0.679822 -5.870548,-1.827364 0.300094,-3.071281 2.808635,-5.481971 5.870548,-5.481971 3.061914,0 5.570455,2.420317 5.870548,5.481971 -1.683284,1.152319 -3.699552,1.827364 -5.870548,1.827364 z m 12.158586,33.350482 c -0.0844,-3.100163 -0.46889,-6.012344 -1.130044,-8.640021 1.978696,-0.602679 3.779257,-1.36932 5.354748,-2.285409 2.170996,3.10979 3.516735,6.85129 3.732442,10.910866 l -7.957158,0.0048 z M 52.25592,40.27074 c 2.907185,0.703928 5.472024,4.107837 7.080284,8.924525 -2.222612,0.49179 -4.623359,0.79071 -7.080284,0.86304 z m -2.231975,0 v 9.78754 c -2.485134,-0.06268 -4.871837,-0.356783 -7.080285,-0.8534 1.594217,-4.821378 4.163857,-8.230237 7.080285,-8.934152 z m 0,12.097018 v 7.111601 h -8.796459 c 0.0844,-2.86392 0.454834,-5.592809 1.078464,-8.061386 2.41011,0.554467 5.003158,0.877505 7.718043,0.949822 z m 0,9.416265 v 7.111602 c -2.700841,0.07232 -5.307933,0.395355 -7.718043,0.940182 -0.62363,-2.454136 -0.994054,-5.183025 -1.078464,-8.061387 h 8.796459 z m 0,9.406638 v 9.78754 c -2.907185,-0.703927 -5.472024,-4.107837 -7.080285,-8.934152 2.194404,-0.496604 4.581107,-0.781071 7.080285,-0.8534 z m 2.231975,9.78754 v -9.78754 c 2.461726,0.07232 4.862474,0.37125 7.080284,0.86304 -1.594216,4.826316 -4.173219,8.22061 -7.080284,8.924525 z m 0,-12.082576 v -7.111602 h 8.810503 c -0.0844,2.86392 -0.454833,5.592809 -1.078464,8.061387 -2.414792,-0.554467 -5.017202,-0.877505 -7.732087,-0.949822 z m 0,-9.421079 v -7.111602 c 2.700841,-0.07232 5.317295,-0.395355 7.732087,-0.940182 0.623631,2.454136 0.994054,5.183025 1.078464,8.061386 l -8.810503,0.0048 z m 9.293534,-10.848288 c -1.045634,-3.211125 -2.508542,-5.877313 -4.248243,-7.752814 3.432349,1.137866 6.447327,3.196561 8.810503,5.88694 -1.336376,0.732859 -2.883658,1.359692 -4.56238,1.865874 z m -20.819283,0.01447 c -1.678603,-0.506256 -3.216642,-1.137866 -4.562381,-1.889943 2.363296,-2.690379 5.378275,-4.753987 8.810504,-5.88694 -1.7349,1.889943 -3.202597,4.556253 -4.248243,7.777006 z m -5.97378,-0.07714 c 1.561446,0.911251 3.37137,1.677892 5.354747,2.285409 -0.647073,2.627677 -1.045633,5.539858 -1.130044,8.640021 h -7.971202 c 0.215696,-4.07414 1.57081,-7.810702 3.746487,-10.92543 z m 4.224715,13.220467 c 0.0844,3.100163 0.46889,6.012344 1.130044,8.640021 -1.99286,0.602679 -3.793421,1.36932 -5.354747,2.285409 -2.170996,-3.10979 -3.516735,-6.860917 -3.732442,-10.910866 h 7.957157 z m 1.748945,10.824095 c 1.045634,3.220753 2.508541,5.901381 4.262287,7.777007 -3.432349,-1.137867 -6.45669,-3.196561 -8.824668,-5.886941 1.345739,-0.742498 2.883658,-1.36932 4.562381,-1.889943 z m 16.556755,7.777007 c 1.753626,-1.875502 3.207279,-4.541813 4.262287,-7.762566 1.692768,0.506256 3.230686,1.137866 4.562381,1.875502 -2.367977,2.70482 -5.392319,4.763614 -8.824668,5.88694 z m 10.250112,-7.690245 c -1.561446,-0.91125 -3.362007,-1.677892 -5.354747,-2.285409 0.647073,-2.627677 1.045633,-5.539858 1.130043,-8.640021 h 7.971202 c -0.229763,4.064513 -1.584853,7.815517 -3.746486,10.92543 z M 51.139812,4.3412353 c 5.833097,0 10.587657,4.8888943 10.587657,10.8964247 0,2.815659 -1.055021,5.371131 -2.76182,7.309335 -0.994053,-3.481065 -4.130966,-6.036413 -7.825837,-6.036413 -3.69487,0 -6.831807,2.555348 -7.825836,6.036413 -1.706812,-1.938204 -2.76182,-4.493552 -2.76182,-7.309335 0,-6.0075304 4.75456,-10.8964247 10.587656,-10.8964247 z M 41.475843,23.877558 c 2.124062,2.507087 5.148523,4.184979 8.547982,4.493551 v 9.271607 C 40.960043,38.110401 33.312221,44.108291 30.217658,52.43937 l -8.571389,-2.86392 c 0.215695,-0.949822 0.337605,-1.938204 0.337605,-2.960318 0,-2.483019 -0.684585,-4.802124 -1.847495,-6.788589 z M -1.4375189,46.600814 c 0,-6.012344 4.7545604,-10.896425 10.5970196,-10.896425 5.8330963,0 10.5876573,4.888895 10.5876573,10.896425 0,2.815659 -1.055021,5.371131 -2.76182,7.309334 -0.994054,-3.481064 -4.130967,-6.036412 -7.8258373,-6.036412 -3.6948705,0 -6.8318072,2.555348 -7.8398811,6.036412 -1.7114929,-1.938203 -2.7571385,-4.493551 -2.7571385,-7.309334 z m 4.7171088,9.049805 c 0.3141618,-3.071281 2.8227989,-5.48197 5.8705479,-5.48197 3.0619132,0 5.5704542,2.420317 5.8705482,5.48197 -1.678603,1.161972 -3.694871,1.827365 -5.8705482,1.827365 -2.1616331,0.0096 -4.1872638,-0.665356 -5.8705479,-1.827365 z M 14.16734,58.736341 c 3.047869,-1.330687 5.495431,-3.852339 6.794356,-6.986321 l 8.557344,2.86392 c -0.506413,1.923762 -0.806507,3.924668 -0.806507,6.012344 0,7.246633 3.277621,13.711714 8.365165,17.93545 l -5.293889,7.492503 c -1.931881,-1.195717 -4.1779,-1.899694 -6.588011,-1.899694 -0.994053,0 -1.955289,0.125354 -2.878976,0.347144 z m 5.148523,47.669459 c 0.314162,-3.06165 2.822799,-5.48196 5.870548,-5.48196 3.047869,0 5.55641,2.42031 5.870548,5.48196 -1.678603,1.16198 -3.69487,1.82737 -5.870548,1.82737 -2.161633,0.01 -4.187264,-0.67018 -5.870548,-1.82737 z m 13.710669,-1.74059 c -0.994053,-3.48106 -4.140329,-6.03641 -7.825836,-6.03641 -3.694871,0 -6.831808,2.55535 -7.839881,6.03641 -1.706812,-1.9382 -2.76182,-4.49355 -2.76182,-7.309332 0,-5.997902 4.75456,-10.886797 10.597019,-10.886797 5.833096,0 10.587657,4.888895 10.587657,10.886797 0.0047,2.801222 -1.055021,5.371132 -2.757139,7.309332 z m 38.195893,1.24392 c 0.314162,-3.06165 2.822799,-5.48197 5.870548,-5.48197 3.061914,0 5.570455,2.42032 5.870548,5.48197 -1.678602,1.16197 -3.69487,1.82736 -5.870548,1.82736 -2.175677,0 -4.191945,-0.67982 -5.870548,-1.82736 z M 87.68075,96.849697 c 0,2.815659 -1.05502,5.371133 -2.76182,7.309333 -0.994053,-3.48106 -4.130966,-6.036411 -7.825837,-6.036411 -3.69487,0 -6.831807,2.555351 -7.839881,6.036411 -1.706811,-1.9382 -2.76182,-4.49355 -2.76182,-7.309333 0,-5.997903 4.754561,-10.886798 10.59702,-10.886798 5.837778,0 10.592338,4.874454 10.592338,10.886798 z M 80.117435,84.039014 c -0.97061,-0.245895 -1.978696,-0.38089 -3.024342,-0.38089 -2.447682,0 -4.717108,0.713567 -6.672397,1.938204 l -5.101589,-7.121229 c 5.031247,-4.23324 8.247888,-10.650554 8.247888,-17.84905 0,-2.087676 -0.300093,-4.083767 -0.806507,-6.012344 l 8.557345,-2.86392 c 1.294123,3.133983 3.746486,5.650698 6.794355,6.986321 z m 7.141264,-28.388642 c 0.314161,-3.071281 2.822799,-5.48197 5.870548,-5.48197 3.047869,0 5.55641,2.420317 5.870547,5.48197 -1.678602,1.161972 -3.69487,1.827365 -5.870547,1.827365 -2.170996,0.0096 -4.191946,-0.665356 -5.870548,-1.827365 z m 13.696261,-1.740594 c -0.99405,-3.481064 -4.140326,-6.036412 -7.825833,-6.036412 -3.694871,0 -6.831808,2.555348 -7.839882,6.036412 -1.706811,-1.938203 -2.76182,-4.493552 -2.76182,-7.309334 0,-6.012344 4.754561,-10.896425 10.59702,-10.896425 5.833096,0 10.587655,4.888894 10.587655,10.896425 0.005,2.815659 -1.04095,5.371131 -2.75714,7.309334 z M 93.129127,38.519432 c -2.47109,0 -4.487358,2.073234 -4.487358,4.614141 0,2.540907 2.016268,4.614142 4.487358,4.614142 2.471089,0 4.487357,-2.073235 4.487357,-4.614142 0,-2.540907 -2.002224,-4.614141 -4.487357,-4.614141 z m 0,6.933246 c -1.247309,0 -2.255383,-1.036605 -2.255383,-2.319105 0,-1.282549 1.008122,-2.319105 2.255383,-2.319105 1.247308,0 2.255382,1.036605 2.255382,2.319105 0,1.28255 -1.008122,2.319105 -2.255382,2.319105 z"
     id="path1"
     style="stroke-width:1.21721" />
</svg>
